<?xml version="1.0" encoding="UTF-8"?> <!-- Generator: Adobe Illustrator 19.2.0, SVG Export Plug-In . SVG Version: 6.00 Build 0) --> <svg xmlns="http://www.w3.org/2000/svg" xmlns:xlink="http://www.w3.org/1999/xlink" id="Layer_1" x="0px" y="0px" viewBox="0 0 38.1 56.8" style="enable-background:new 0 0 38.1 56.8;" xml:space="preserve"> <style> /* <![CDATA[ */ svg:hover { fill: #666666; } /* ]]> */ </style> <g> <path d="M27.6,31.5c0,0-0.1,0-0.1,0c-0.3-0.1-0.4-0.3-0.3-0.6c0,0,0.7-2.5,0.9-3.8c0.1-0.5-0.2-2-0.4-3.5c-0.3-1.8-0.6-3.7-0.5-4.8 c0.1-1.1-0.7-2.8-1.4-4.2c-0.5-1.1-1-2.2-1.2-3c-0.3-1.7-2.5-6.9-5.8-6.7c-3.9,0.3-6.5,0.2-7.8-1.4c-0.2-0.2-0.4-0.4-0.5-0.7 c-1-1.2-1.7-2.2-3.8-1.7C3.9,1.7,3.9,2,3.6,3C3,4.6,3,5.9,3.2,6.1c0.9,0.1,0.9,0.9,1,1.3c0,0.1,0,0.4,0.1,0.4C4.8,8,5,8.5,5.1,8.8 c0.1,0.3,0.1,0.4,0.3,0.6c0.2,0.2,0.3,0.5,0.1,0.7c-0.2,0.2-0.5,0.3-0.7,0.1C4.3,9.9,4.2,9.4,4.1,9.1C4,8.8,4,8.8,3.8,8.7 C3.2,8.5,3.2,7.8,3.2,7.4c0-0.1,0-0.3-0.1-0.4C2.8,7,2.5,6.9,2.3,6.7c-0.6-0.9,0.1-3.3,0.3-4c0.4-1.4,0.9-1.8,3.8-2.5 c2.7-0.6,3.8,0.8,4.8,2.1c0.2,0.2,0.3,0.4,0.5,0.6c1.1,1.3,3.5,1.3,7,1.1c4.2-0.3,6.6,5.8,6.8,7.5c0.1,0.7,0.6,1.7,1.1,2.7 c0.8,1.6,1.6,3.3,1.5,4.7c-0.1,1.1,0.2,3,0.5,4.6c0.3,1.7,0.5,3.1,0.4,3.8c-0.2,1.3-0.9,3.8-1,3.9C28,31.4,27.8,31.5,27.6,31.5z"></path> </g> <g> <path d="M8.1,21.7c-0.2,0-0.4-0.2-0.5-0.4c0,0-0.7-3.3-2.1-4.9c-1.6-1.9-0.6-4.9-0.6-5.1c0-0.1,0.1-0.2,0.2-0.3 c0.7-0.5,1.7-1,2.2-0.9c0.3,0,0.5,0.2,0.7,0.3c0.2,0.1,0.3,0.1,0.4,0.2c0.2,0,2.4,0.5,2.4,1.9c0,0.9-0.7,1.7-1.1,2.1 c0.3,1.2,1.3,3.7,2.5,4.5c0.2,0.2,0.3,0.5,0.1,0.7c-0.2,0.2-0.5,0.3-0.7,0.1c-1.9-1.3-2.9-5.2-2.9-5.4c0-0.2,0-0.4,0.2-0.5 c0.3-0.2,1-1,1-1.5c0-0.5-1-0.9-1.6-1c-0.3-0.1-0.5-0.2-0.7-0.2c-0.2-0.1-0.3-0.1-0.5-0.2c-0.2,0-0.8,0.3-1.4,0.7 c-0.2,0.6-0.6,2.7,0.5,3.9c1.5,1.8,2.2,5.2,2.3,5.4c0.1,0.3-0.1,0.5-0.4,0.6C8.2,21.7,8.1,21.7,8.1,21.7z"></path> </g> <g> <path d="M5.7,32c-0.4,0-0.8-0.2-1.3-0.6c-0.3-0.3-0.6-0.4-0.8-0.6c-0.6-0.4-1.3-0.8-1.1-2.3c0.3-1.7,1.3-2.7,2.4-3.8l0.3-0.3 c1.2-1.2,1.6-1.4,3.8-2.3l0.5-0.2c3.5-1.5,6.3-3.4,6.2-4c-0.4-1.2-0.4-3.3,0.2-4.4c0.4-0.8,0.3-1.4-0.3-2.3c-0.8-1.2-0.1-2.8,0-2.9 c0.1-0.2,0.4-0.4,0.7-0.2c0.2,0.1,0.4,0.4,0.2,0.7c-0.1,0.3-0.4,1.3,0,1.9c0.8,1.1,0.9,2.2,0.3,3.3c-0.4,0.8-0.4,2.6-0.1,3.6 c0.6,1.9-5.6,4.7-6.8,5.2L9.5,23C7.3,24,7.1,24.1,6,25.2l-0.3,0.3c-1.1,1.1-1.9,1.9-2.1,3.3c-0.1,0.8,0,0.9,0.6,1.2 c0.3,0.2,0.6,0.4,1,0.7c0.5,0.5,0.6,0.4,1,0.2c0.2-0.1,0.4-0.2,0.6-0.3c0.3-0.1,0.5-0.4,0.5-0.5c-0.3-0.1-0.4-0.3-0.4-0.6 c0-0.4,0.2-0.6,0.5-0.9c0.2-0.2,0.5-0.5,0.7-0.9c0.6-1.4,1.4-2.5,5.7-3c0.4-0.2,2.4-1,4.2-1.8c1.7-0.8,1.9-1.8,2.2-4.1l0-0.1 c0.2-1.6,0.9-3.1,1.4-4.4c0.3-0.7,0.6-1.5,0.8-2.1c0.2-0.7,0.3-1,0.3-1.2c-0.1-0.2-0.1-0.4,0.1-0.6c0.2-0.2,0.5-0.2,0.7-0.1 c0.4,0.2,0.4,0.6-0.1,2.2c-0.2,0.7-0.5,1.4-0.9,2.2c-0.6,1.3-1.2,2.7-1.4,4.1l0,0.1c-0.3,2.3-0.5,3.8-2.7,4.9 c-2,0.9-4.3,1.9-4.3,1.9c0,0-0.1,0-0.1,0c-4.1,0.5-4.5,1.5-4.9,2.4c-0.3,0.6-0.7,1-0.9,1.3c0,0,0,0,0,0c0.2,0.2,0.3,0.5,0.3,0.8 c-0.1,0.6-0.6,1.1-1.3,1.3c-0.1,0-0.3,0.1-0.4,0.2C6.3,31.9,6,32,5.7,32z"></path> </g> <g> <path d="M22,24c-1,0-1.4-0.4-1.5-0.5c-0.2-0.2-0.1-0.5,0.1-0.7c0.2-0.2,0.5-0.1,0.7,0.1c0.1,0,0.6,0.4,2.6-0.1 c0.3-0.1,0.5,0.1,0.6,0.3c0.1,0.3-0.1,0.5-0.3,0.6C23.2,24,22.5,24,22,24z"></path> </g> <g> <path d="M15.8,48.9c-0.2,0-0.4,0-0.5-0.1c-0.1,0-0.3-0.1-0.5-0.1c-0.4-0.1-0.9-0.1-1.2-0.6c-0.2-0.3-0.2-0.7-0.1-1.2 c0.3-0.9,1.1-1.4,1.8-2c0.6-0.4,1.2-0.9,1.5-1.4c0.6-1.2,0.5-4.4-2.6-6.9c-3.3-2.7-6.1-6.2-6.1-6.2c-0.2-0.2-0.1-0.5,0.1-0.7 c0.2-0.2,0.5-0.1,0.7,0.1c0,0,2.8,3.5,6,6.1c3.4,2.8,3.7,6.5,2.9,8.1c-0.4,0.8-1.1,1.3-1.8,1.8c-0.7,0.5-1.3,0.9-1.5,1.5 c-0.1,0.3,0,0.4,0,0.4c0.1,0.1,0.4,0.1,0.5,0.1c0.3,0,0.6,0.1,0.9,0.3c0.3,0.1,2.3-0.7,4.9-2.3c1.7-1.1,2.6-2.7,2.5-3.3 c0-0.1-0.1-0.2-0.2-0.2c-1.6-0.4-2.6-3-4.3-8.7c-1.4-4.6-3.7-5-3.7-5c-0.3,0-0.5-0.3-0.4-0.6s0.3-0.5,0.6-0.4 c0.1,0,2.9,0.4,4.5,5.7c1.2,3.9,2.4,7.7,3.6,8c0.5,0.1,0.8,0.5,0.9,1c0.2,1.2-1.1,3.2-3,4.3C20,47.3,17.2,48.9,15.8,48.9z"></path> </g> <g> <path d="M16.1,43.5c-0.1,0-0.2,0-0.3-0.1c-0.2-0.1-3.9-2.5-5-5.7c-0.9-2.9-3-4.3-3.1-4.3c-0.2-0.1-0.3-0.5-0.1-0.7 c0.2-0.2,0.5-0.3,0.7-0.1c0.1,0.1,2.4,1.6,3.5,4.8c0.9,2.9,4.5,5.1,4.5,5.2c0.2,0.1,0.3,0.4,0.2,0.7C16.4,43.4,16.3,43.5,16.1,43.5 z"></path> </g> <g> <path d="M11.2,50.8c-0.3,0-0.6-0.1-0.8-0.4c-0.3-0.6,0.1-1.4,0.4-1.9c0.8-1.3,1.1-4.2-1.6-6.6c-2.7-2.3-6.1-6.1-6.6-6.7 c-0.3-0.2-1.5-1-2.1-2.8c-0.7-1.9-0.7-2.1,0.2-3.4c0.2-0.2,0.5-0.3,0.7-0.1c0.2,0.2,0.3,0.5,0.1,0.7c-0.7,0.8-0.7,0.8-0.1,2.4 c0.6,1.6,1.8,2.3,1.8,2.3c0.1,0,0.1,0.1,0.1,0.1c0,0,3.8,4.3,6.5,6.6c2.9,2.5,3.1,5.9,1.8,7.9c-0.4,0.7-0.4,0.9-0.4,0.9 c0.3,0,0.5,0.2,0.5,0.4C11.8,50.6,11.6,50.8,11.2,50.8C11.3,50.8,11.3,50.8,11.2,50.8z"></path> </g> <g> <path d="M10.3,10.6c-0.1,0-0.1,0-0.2,0c-0.2-0.1-0.4-0.4-0.2-0.7c0.2-0.4,0.7-1.6,0.7-2.3c0-0.6,0.1-0.9,0.2-1.2 c0.1-0.3,0.2-0.5,0.1-0.8c0-0.3,0.1-0.5,0.4-0.6c0.3,0,0.5,0.1,0.6,0.4c0.1,0.6,0,1-0.2,1.3c-0.1,0.2-0.2,0.5-0.2,0.8 c0,1.1-0.7,2.7-0.8,2.7C10.7,10.5,10.5,10.6,10.3,10.6z"></path> </g> <g> <path d="M14.5,20c-0.1,0-0.2,0-0.3-0.1l-2-1.4c-0.2-0.2-0.3-0.5-0.1-0.7s0.5-0.3,0.7-0.1l2,1.4c0.2,0.2,0.3,0.5,0.1,0.7 C14.8,19.9,14.6,20,14.5,20z"></path> </g> <g> <path d="M37.3,51.1c-0.1,0-0.2,0-0.3-0.1c-0.2-0.1-0.3-0.5-0.2-0.7c0.1-0.2,0.3-0.7,0.2-0.9c0,0-0.1-0.2-0.4-0.2 C35,48.8,34,46.8,34,45.8c0-1.9-0.4-3-1.1-3.4c-1.1-0.6-1-2.1-0.8-3.9c0.1-0.9,0.2-1.9,0.1-2.8c-0.2-2.3-0.4-2.3-4.1-3.4L28,32.3 c-3.7-1-6.9-0.1-7-0.1c-0.3,0.1-0.5-0.1-0.6-0.3c-0.1-0.3,0.1-0.5,0.3-0.6c0.1,0,3.6-1.1,7.5,0l0.2,0.1c3.7,1,4.5,1.3,4.8,4.2 c0.1,1,0,2-0.1,3c-0.1,1.4-0.2,2.6,0.3,3C35,42.4,35,45,35,45.8c0,0.6,0.8,2.1,2,2.5c0.7,0.2,0.9,0.6,1,0.8 c0.3,0.8-0.3,1.7-0.3,1.8C37.6,51.1,37.4,51.1,37.3,51.1z"></path> </g> <g> <path d="M36.7,54.7H11.1c-0.3,0-0.5-0.2-0.5-0.5s0.2-0.5,0.5-0.5h25.5c0.3,0,0.5,0.2,0.5,0.5S37,54.7,36.7,54.7z"></path> </g> <g> <path d="M36.7,56.8H11.1c-0.3,0-0.5-0.2-0.5-0.5s0.2-0.5,0.5-0.5h25.5c0.3,0,0.5,0.2,0.5,0.5S37,56.8,36.7,56.8z"></path> </g> </svg> 