<?xml version="1.0" encoding="utf-8"?>
<!-- Generator: Adobe Illustrator 19.2.0, SVG Export Plug-In . SVG Version: 6.00 Build 0)  -->
<!DOCTYPE svg PUBLIC "-//W3C//DTD SVG 1.1//EN" "http://www.w3.org/Graphics/SVG/1.1/DTD/svg11.dtd">
<svg
version="1.1" 
id="Layer_1" 
xmlns="http://www.w3.org/2000/svg" 
xmlns:xlink="http://www.w3.org/1999/xlink" 
x="0px" 
y="0px"
viewBox="0 0 28 41.7" 
style="width:1.75em;height:3em;enable-background:new 0 0 28 41.7;" 
xml:space="preserve">
<g>
	<path d="M20.3,23.1L20.3,23.1C20,23,19.9,22.9,20,22.7c0,0,0.5-1.8,0.7-2.8c0.1-0.4-0.1-1.5-0.3-2.6c-0.2-1.3-0.4-2.7-0.4-3.5
		c0.1-0.8-0.5-2.1-1-3.1c-0.4-0.8-0.7-1.6-0.9-2.2c-0.2-1.2-1.8-5.1-4.3-4.9c-2.9,0.2-4.8,0.1-5.7-1C7.9,2.4,7.8,2.2,7.7,2
		C7,1.1,6.5,0.4,4.9,0.8C2.9,1.2,2.9,1.4,2.6,2.2C2.2,3.3,2.2,4.3,2.4,4.4C3,4.5,3,5.1,3.1,5.4c0,0.1,0,0.3,0.1,0.3
		c0.4,0.1,0.5,0.5,0.6,0.7S3.8,6.7,4,6.9C4.1,7,4.2,7.2,4,7.4C3.9,7.5,3.7,7.6,3.5,7.5C3.2,7.2,3.1,6.9,3,6.6
		C2.9,6.4,2.9,6.4,2.8,6.4c-0.4-0.1-0.4-0.7-0.4-1c0-0.1,0-0.2-0.1-0.3C2.1,5.1,1.8,5,1.7,4.9C1.3,4.2,1.8,2.5,1.9,1.9
		c0.3-1,0.7-1.3,2.8-1.8c2-0.4,2.8,0.6,3.5,1.5c0.1,0.1,0.2,0.3,0.4,0.4c0.8,1,2.6,1,5.1,0.8c3.1-0.2,4.8,4.3,5,5.5
		c0.1,0.5,0.4,1.2,0.8,2c0.6,1.2,1.2,2.4,1.1,3.5c-0.1,0.8,0.1,2.2,0.4,3.4c0.2,1.2,0.4,2.3,0.3,2.8c-0.1,1-0.7,2.8-0.7,2.9
		C20.6,23,20.4,23.1,20.3,23.1z"/>
</g>
<g>
	<path d="M6,15.9c-0.1,0-0.3-0.1-0.4-0.3c0,0-0.5-2.4-1.5-3.6c-1.2-1.4-0.4-3.6-0.4-3.7c0-0.1,0.1-0.1,0.1-0.2
		C4.3,7.7,5,7.3,5.4,7.4c0.2,0,0.4,0.1,0.5,0.2C6,7.7,6.1,7.7,6.2,7.7c0.1,0,1.8,0.4,1.8,1.4c0,0.7-0.5,1.2-0.8,1.5
		c0.2,0.9,1,2.7,1.8,3.3c0.1,0.1,0.2,0.4,0.1,0.5c-0.1,0.1-0.4,0.2-0.5,0.1c-1.4-1-2.1-3.8-2.1-4s0-0.3,0.1-0.4
		c0.2-0.1,0.7-0.7,0.7-1.1S6.5,8.5,6.1,8.4C5.9,8.3,5.7,8.3,5.6,8.3C5.4,8.2,5.4,8.2,5.2,8.1c-0.1,0-0.6,0.2-1,0.5
		c-0.1,0.4-0.4,2,0.4,2.9c1.1,1.3,1.6,3.8,1.7,4C6.3,15.7,6.2,15.8,6,15.9C6,15.9,6,15.9,6,15.9z"/>
</g>
<g>
	<path d="M4.2,23.5c-0.3,0-0.6-0.1-1-0.4c-0.2-0.2-0.4-0.3-0.6-0.4c-0.4-0.3-1-0.6-0.8-1.7c0.2-1.2,1-2,1.8-2.8l0.2-0.2
		c0.9-0.9,1.2-1,2.8-1.7L7,16c2.6-1.1,4.6-2.5,4.6-2.9c-0.3-0.9-0.3-2.4,0.1-3.2c0.3-0.6,0.2-1-0.2-1.7c-0.6-0.9-0.1-2.1,0-2.1
		c0.1-0.1,0.3-0.3,0.5-0.1c0.1,0.1,0.3,0.3,0.1,0.5c-0.1,0.2-0.3,1,0,1.4c0.6,0.8,0.7,1.6,0.2,2.4c-0.3,0.6-0.3,1.9-0.1,2.6
		c0.4,1.4-4.1,3.5-5,3.8L7,16.9c-1.6,0.7-1.8,0.8-2.6,1.6l-0.2,0.2c-0.8,0.8-1.4,1.4-1.5,2.4c-0.1,0.6,0,0.7,0.4,0.9
		c0.2,0.1,0.4,0.3,0.7,0.5c0.4,0.4,0.4,0.3,0.7,0.1c0.1-0.1,0.3-0.1,0.4-0.2c0.2-0.1,0.4-0.3,0.4-0.4c-0.2-0.1-0.3-0.2-0.3-0.4
		c0-0.3,0.1-0.4,0.4-0.7c0.1-0.1,0.4-0.4,0.5-0.7c0.4-1,1-1.8,4.2-2.2c0.3-0.1,1.8-0.7,3.1-1.3c1.2-0.6,1.4-1.3,1.6-3v-0.1
		c0.1-1.2,0.7-2.3,1-3.2c0.2-0.5,0.4-1.1,0.6-1.5c0.1-0.5,0.2-0.7,0.2-0.9c-0.1-0.1-0.1-0.3,0.1-0.4c0.1-0.1,0.4-0.1,0.5-0.1
		c0.3,0.1,0.3,0.4-0.1,1.6c-0.1,0.5-0.4,1-0.7,1.6c-0.4,1-0.9,2-1,3v0.1c-0.2,1.7-0.4,2.8-2,3.6c-1.5,0.7-3.2,1.4-3.2,1.4h-0.1
		c-3,0.4-3.3,1.1-3.6,1.8c-0.2,0.4-0.5,0.7-0.7,1l0,0c0.1,0.1,0.2,0.4,0.2,0.6c-0.1,0.4-0.4,0.8-1,1c-0.1,0-0.2,0.1-0.3,0.1
		C4.6,23.4,4.4,23.5,4.2,23.5z"/>
</g>
<g>
	<path d="M16.2,17.6c-0.7,0-1-0.3-1.1-0.4c-0.1-0.1-0.1-0.4,0.1-0.5s0.4-0.1,0.5,0.1c0.1,0,0.4,0.3,1.9-0.1c0.2-0.1,0.4,0.1,0.4,0.2
		c0.1,0.2-0.1,0.4-0.2,0.4C17,17.6,16.5,17.6,16.2,17.6z"/>
</g>
<g>
	<path d="M11.6,35.9c-0.1,0-0.3,0-0.4-0.1c-0.1,0-0.2-0.1-0.4-0.1c-0.3-0.1-0.7-0.1-0.9-0.4c-0.1-0.2-0.1-0.5-0.1-0.9
		c0.2-0.7,0.8-1,1.3-1.5c0.4-0.3,0.9-0.7,1.1-1c0.4-0.9,0.4-3.2-1.9-5.1C8,24.9,6,22.3,6,22.3c-0.1-0.1-0.1-0.4,0.1-0.5
		c0.1-0.1,0.4-0.1,0.5,0.1c0,0,2.1,2.6,4.4,4.5c2.5,2.1,2.7,4.8,2.1,6c-0.3,0.6-0.8,1-1.3,1.3c-0.5,0.4-1,0.7-1.1,1.1
		c-0.1,0.2,0,0.3,0,0.3c0.1,0.1,0.3,0.1,0.4,0.1c0.2,0,0.4,0.1,0.7,0.2c0.2,0.1,1.7-0.5,3.6-1.7c1.2-0.8,1.9-2,1.8-2.4
		c0-0.1-0.1-0.1-0.1-0.1c-1.2-0.3-1.9-2.2-3.2-6.4c-1-3.4-2.7-3.7-2.7-3.7c-0.2,0-0.4-0.2-0.3-0.4c0.1-0.2,0.2-0.4,0.4-0.3
		c0.1,0,2.1,0.3,3.3,4.2c0.9,2.9,1.8,5.7,2.6,5.9c0.4,0.1,0.6,0.4,0.7,0.7c0.1,0.9-0.8,2.4-2.2,3.2C14.7,34.7,12.6,35.9,11.6,35.9z"
		/>
</g>
<g>
	<path d="M11.8,31.9c-0.1,0-0.1,0-0.2-0.1c-0.1-0.1-2.9-1.8-3.7-4.2c-0.7-2.1-2.2-3.2-2.3-3.2c-0.1-0.1-0.2-0.4-0.1-0.5
		s0.4-0.2,0.5-0.1c0.1,0.1,1.8,1.2,2.6,3.5c0.7,2.1,3.3,3.7,3.3,3.8c0.1,0.1,0.2,0.3,0.1,0.5C12.1,31.8,12,31.9,11.8,31.9z"/>
</g>
<g>
	<path d="M8.2,37.3c-0.2,0-0.4-0.1-0.6-0.3c-0.2-0.4,0.1-1,0.3-1.4c0.6-1,0.8-3.1-1.2-4.8c-2-1.7-4.5-4.5-4.8-4.9
		c-0.2-0.1-1.1-0.7-1.5-2.1c-0.5-1.4-0.5-1.5,0.1-2.5C0.7,21.1,0.9,21,1,21.2c0.1,0.1,0.2,0.4,0.1,0.5c-0.5,0.6-0.5,0.6-0.1,1.8
		s1.3,1.7,1.3,1.7c0.1,0,0.1,0.1,0.1,0.1s2.8,3.2,4.8,4.8c2.1,1.8,2.3,4.3,1.3,5.8c-0.3,0.5-0.3,0.7-0.3,0.7c0.2,0,0.4,0.1,0.4,0.3
		C8.7,37.1,8.5,37.3,8.2,37.3C8.3,37.3,8.3,37.3,8.2,37.3z"/>
</g>
<g>
	<path d="M7.6,7.7c-0.1,0-0.1,0-0.1,0C7.3,7.7,7.1,7.5,7.3,7.2c0.1-0.3,0.5-1.2,0.5-1.7c0-0.4,0.1-0.7,0.1-0.9C8,4.4,8.1,4.3,8,4.1
		c0-0.2,0.1-0.4,0.3-0.4c0.2,0,0.4,0.1,0.4,0.3c0.1,0.4,0,0.7-0.1,1C8.5,5,8.5,5.2,8.5,5.5c0,0.8-0.5,2-0.6,2
		C7.9,7.7,7.7,7.7,7.6,7.7z"/>
</g>
<g>
	<path d="M10.7,14.7c-0.1,0-0.1,0-0.2-0.1l-1.5-1c-0.1-0.1-0.2-0.4-0.1-0.5C9,12.9,9.3,12.8,9.4,13l1.5,1c0.1,0.1,0.2,0.4,0.1,0.5
		C10.9,14.6,10.7,14.7,10.7,14.7z"/>
</g>
<g>
	<path d="M27.4,37.5c-0.1,0-0.1,0-0.2-0.1C27,37.4,27,37.1,27,36.9c0.1-0.1,0.2-0.5,0.1-0.7c0,0-0.1-0.1-0.3-0.1
		c-1.2-0.3-1.9-1.8-1.9-2.5c0-1.4-0.3-2.2-0.8-2.5c-0.8-0.4-0.7-1.5-0.6-2.9c0.1-0.7,0.1-1.4,0.1-2.1c-0.1-1.7-0.3-1.7-3-2.5l-0.1,0
		c-2.7-0.7-5.1-0.1-5.1-0.1c-0.2,0.1-0.4-0.1-0.4-0.2c-0.1-0.2,0.1-0.4,0.2-0.4c0.1,0,2.6-0.8,5.5,0l0.1,0.1c2.7,0.7,3.3,1,3.5,3.1
		c0.1,0.7,0,1.5-0.1,2.2c-0.1,1-0.1,1.9,0.2,2.2c1.2,0.6,1.2,2.5,1.2,3.1c0,0.4,0.6,1.5,1.5,1.8c0.5,0.1,0.7,0.4,0.7,0.6
		c0.2,0.6-0.2,1.2-0.2,1.3C27.6,37.5,27.5,37.5,27.4,37.5z"/>
</g>
<g>
	<path d="M27,40.1H8.2c-0.2,0-0.4-0.1-0.4-0.4s0.1-0.4,0.4-0.4h18.7c0.2,0,0.4,0.1,0.4,0.4S27.2,40.1,27,40.1z"/>
</g>
<g>
	<path d="M27,41.7H8.2c-0.2,0-0.4-0.1-0.4-0.4S7.9,41,8.2,41h18.7c0.2,0,0.4,0.1,0.4,0.4S27.2,41.7,27,41.7z"/>
</g>
</svg>
